<svg id="visual" viewBox="0 0 1950 1080" width="1950" height="1080" xmlns="http://www.w3.org/2000/svg" xmlns:xlink="http://www.w3.org/1999/xlink" version="1.1"><rect x="0" y="0" width="1950" height="1080" fill="#001220"></rect><defs><linearGradient id="grad1_0" x1="44.6%" y1="0%" x2="100%" y2="100%"><stop offset="13.888888888888888%" stop-color="#fbae3c" stop-opacity="1"></stop><stop offset="86.11111111111111%" stop-color="#fbae3c" stop-opacity="1"></stop></linearGradient></defs><defs><linearGradient id="grad1_1" x1="44.6%" y1="0%" x2="100%" y2="100%"><stop offset="13.888888888888888%" stop-color="#fbae3c" stop-opacity="1"></stop><stop offset="86.11111111111111%" stop-color="#96446e" stop-opacity="1"></stop></linearGradient></defs><defs><linearGradient id="grad1_2" x1="44.6%" y1="0%" x2="100%" y2="100%"><stop offset="13.888888888888888%" stop-color="#001220" stop-opacity="1"></stop><stop offset="86.11111111111111%" stop-color="#96446e" stop-opacity="1"></stop></linearGradient></defs><defs><linearGradient id="grad2_0" x1="0%" y1="0%" x2="55.4%" y2="100%"><stop offset="13.888888888888888%" stop-color="#fbae3c" stop-opacity="1"></stop><stop offset="86.11111111111111%" stop-color="#fbae3c" stop-opacity="1"></stop></linearGradient></defs><defs><linearGradient id="grad2_1" x1="0%" y1="0%" x2="55.4%" y2="100%"><stop offset="13.888888888888888%" stop-color="#96446e" stop-opacity="1"></stop><stop offset="86.11111111111111%" stop-color="#fbae3c" stop-opacity="1"></stop></linearGradient></defs><defs><linearGradient id="grad2_2" x1="0%" y1="0%" x2="55.4%" y2="100%"><stop offset="13.888888888888888%" stop-color="#96446e" stop-opacity="1"></stop><stop offset="86.11111111111111%" stop-color="#001220" stop-opacity="1"></stop></linearGradient></defs><g transform="translate(1950, 0)"><path d="M0 540C-50.1 486.4 -100.3 432.9 -172.2 415.7C-244.2 398.6 -337.9 417.9 -381.8 381.8C-425.8 345.7 -419.9 254.3 -437.9 181.4C-456 108.5 -498 54.3 -540 0L0 0Z" fill="#3d3056"></path><path d="M0 360C-33.4 324.3 -66.8 288.6 -114.8 277.2C-162.8 265.7 -225.3 278.6 -254.6 254.6C-283.8 230.5 -279.9 169.5 -291.9 120.9C-304 72.3 -332 36.2 -360 0L0 0Z" fill="#e1685e"></path><path d="M0 180C-16.7 162.1 -33.4 144.3 -57.4 138.6C-81.4 132.9 -112.6 139.3 -127.3 127.3C-141.9 115.2 -140 84.8 -146 60.5C-152 36.2 -166 18.1 -180 0L0 0Z" fill="#fbae3c"></path></g><g transform="translate(0, 1080)"><path d="M0 -540C73.2 -535.2 146.5 -530.4 206.6 -498.9C266.8 -467.3 313.9 -409 354.3 -354.3C394.7 -299.5 428.4 -248.3 458.2 -189.8C488.1 -131.4 514 -65.7 540 0L0 0Z" fill="#3d3056"></path><path d="M0 -360C48.8 -356.8 97.7 -353.6 137.8 -332.6C177.9 -311.6 209.2 -272.7 236.2 -236.2C263.1 -199.7 285.6 -165.5 305.5 -126.5C325.4 -87.6 342.7 -43.8 360 0L0 0Z" fill="#e1685e"></path><path d="M0 -180C24.4 -178.4 48.8 -176.8 68.9 -166.3C88.9 -155.8 104.6 -136.3 118.1 -118.1C131.6 -99.8 142.8 -82.8 152.7 -63.3C162.7 -43.8 171.3 -21.9 180 0L0 0Z" fill="#fbae3c"></path></g></svg>